<?xml version="1.0" standalone="no"?>
<!DOCTYPE svg PUBLIC "-//W3C//DTD SVG 20010904//EN"
 "http://www.w3.org/TR/2001/REC-SVG-20010904/DTD/svg10.dtd">
<svg version="1.0" xmlns="http://www.w3.org/2000/svg"
 width="1254.000000pt" height="1254.000000pt" viewBox="0 0 1254.000000 1254.000000"
 preserveAspectRatio="xMidYMid meet">
<metadata>
Created by potrace 1.14, written by Peter Selinger 2001-2017
</metadata>
<g transform="translate(0.000000,1254.000000) scale(0.100000,-0.100000)"
fill="#000000" stroke="none">
<path d="M384 12043 c6 -23 57 -223 61 -243 2 -8 8 -35 15 -60 7 -25 13 -52
15 -60 2 -8 51 -206 110 -440 59 -234 108 -432 110 -440 2 -8 38 -152 80 -320
42 -168 78 -312 80 -320 2 -8 141 -564 310 -1235 169 -671 308 -1227 310
-1235 2 -8 47 -188 100 -400 53 -212 98 -392 100 -400 12 -56 1038 -4152 1046
-4177 l11 -33 796 0 797 0 32 133 c31 129 160 655 208 849 14 53 27 109 29
123 3 15 10 41 15 58 6 18 12 43 15 57 2 14 21 90 41 170 20 80 39 155 41 167
2 12 26 111 53 220 63 251 152 613 156 633 2 8 8 35 15 60 7 25 13 52 15 60 2
8 10 42 18 75 9 33 18 71 21 85 3 14 19 79 36 145 36 146 141 574 145 595 2 8
8 35 15 60 7 25 13 52 15 60 3 16 22 90 31 125 3 11 7 29 9 40 3 11 25 103 50
205 46 189 56 231 57 240 0 3 7 25 14 50 7 25 15 56 18 70 3 14 25 106 50 205
24 99 61 248 80 330 20 83 43 175 51 205 8 30 47 186 86 345 38 160 100 409
135 555 36 146 67 272 69 280 2 8 33 134 68 280 36 146 93 375 126 510 33 135
94 385 136 555 42 171 78 317 80 325 2 8 11 44 20 80 20 81 23 97 31 138 6 33
24 54 24 28 0 -8 29 -133 65 -278 35 -145 87 -357 115 -473 44 -182 59 -243
65 -265 1 -3 5 -21 9 -40 9 -37 142 -587 177 -726 11 -45 21 -90 24 -100 2
-11 33 -138 69 -284 35 -146 80 -330 100 -410 68 -282 144 -595 152 -630 4
-19 8 -37 9 -40 8 -29 22 -85 65 -260 28 -113 52 -214 55 -225 2 -11 16 -69
31 -130 14 -60 27 -117 29 -125 2 -8 33 -136 70 -285 37 -148 68 -277 70 -285
2 -8 13 -55 25 -105 12 -49 23 -97 25 -105 4 -21 80 -330 101 -410 9 -36 18
-76 20 -90 3 -14 10 -43 16 -65 7 -22 13 -47 14 -55 1 -8 34 -145 74 -305 39
-159 73 -299 76 -310 2 -11 15 -67 30 -125 14 -58 27 -112 29 -120 12 -55 67
-280 74 -305 5 -16 17 -64 26 -105 10 -41 38 -156 62 -255 25 -99 46 -187 48
-195 5 -25 44 -184 91 -374 24 -99 46 -189 48 -200 3 -12 21 -88 41 -171 38
-153 42 -170 50 -206 2 -11 7 -29 10 -40 6 -19 26 -19 803 -19 l797 0 218 868
c120 477 221 878 223 892 3 14 8 34 11 45 4 11 8 25 9 30 1 6 12 48 24 95 12
47 23 92 25 100 2 8 54 215 115 460 61 245 113 452 115 460 2 8 38 150 79 315
42 165 78 309 81 320 9 41 155 622 170 675 14 53 127 503 140 560 2 8 58 231
124 495 67 264 123 489 126 500 2 11 49 200 105 420 56 220 103 407 105 415 2
8 44 179 95 380 50 201 93 373 95 383 3 10 7 27 10 37 3 10 7 27 10 37 2 10
22 92 45 183 23 91 44 172 45 180 2 8 13 51 25 95 11 44 22 89 25 100 5 25
324 1293 331 1318 5 16 -30 17 -639 17 l-645 0 -168 -677 c-92 -373 -167 -680
-168 -683 0 -3 -8 -34 -18 -70 -10 -36 -30 -114 -44 -175 -33 -139 -17 -74
-139 -565 -59 -234 -108 -432 -110 -440 -2 -8 -65 -262 -140 -565 -75 -302
-138 -557 -140 -565 -2 -8 -20 -81 -39 -162 -20 -80 -39 -154 -41 -165 -2 -10
-11 -43 -20 -73 -8 -30 -17 -66 -20 -80 -2 -14 -23 -99 -46 -190 -22 -91 -42
-173 -45 -183 -2 -10 -6 -27 -9 -37 -3 -10 -8 -27 -10 -37 -4 -21 -365 -1476
-426 -1718 -22 -88 -42 -171 -45 -185 -3 -14 -10 -43 -16 -65 -7 -22 -12 -42
-13 -45 -5 -20 -16 -68 -19 -85 -3 -11 -12 -48 -21 -82 -9 -35 -18 -71 -20
-80 -2 -10 -40 -164 -85 -343 -45 -179 -84 -336 -86 -350 -8 -41 -75 -294 -79
-298 -2 -2 -9 23 -16 55 -7 32 -14 63 -15 68 -1 6 -14 57 -29 115 -15 58 -28
112 -30 120 -2 8 -29 116 -60 240 -31 124 -58 236 -61 250 -3 14 -9 41 -15 60
-11 37 -64 249 -79 315 -14 61 -378 1524 -391 1569 -6 22 -12 46 -14 55 -2 9
-15 63 -30 121 -14 58 -28 112 -30 120 -1 8 -38 155 -80 325 -42 171 -78 317
-80 325 -2 8 -14 53 -25 100 -12 47 -23 92 -25 100 -2 8 -92 370 -200 804
-108 433 -198 796 -200 805 -2 9 -11 44 -20 78 -9 35 -18 71 -20 80 -2 10 -72
290 -155 623 -83 333 -153 612 -155 620 -13 60 -158 645 -170 685 -8 28 -16
59 -18 70 -2 11 -14 64 -27 118 l-24 97 -713 0 -712 0 -10 -37 c-11 -42 -180
-719 -186 -743 -2 -8 -17 -69 -34 -135 -16 -66 -32 -131 -35 -145 -2 -14 -18
-77 -35 -141 -16 -63 -32 -126 -35 -140 -2 -13 -36 -152 -76 -309 -39 -157
-73 -292 -75 -300 -2 -8 -58 -235 -125 -505 -67 -269 -123 -497 -125 -505 -2
-8 -78 -316 -170 -685 -91 -368 -168 -677 -170 -685 -3 -13 -190 -769 -281
-1135 -19 -77 -36 -147 -38 -155 -2 -8 -14 -53 -26 -100 -12 -47 -24 -96 -26
-109 -3 -14 -19 -77 -35 -140 -16 -64 -34 -134 -39 -156 -4 -22 -18 -78 -30
-125 -12 -47 -23 -92 -25 -100 -2 -8 -87 -352 -189 -765 -102 -412 -188 -760
-191 -773 -8 -33 -21 -19 -30 30 -4 24 -9 48 -11 53 -3 9 -28 108 -39 155 -2
8 -20 80 -40 160 -20 80 -38 152 -40 160 -2 8 -55 222 -118 475 -90 360 -347
1393 -373 1500 -2 11 -18 72 -34 135 -26 104 -126 503 -135 540 -25 108 -58
241 -65 265 -5 17 -13 48 -19 70 -10 38 -159 644 -166 675 -4 17 -282 1131
-292 1170 -3 14 -7 30 -8 35 -10 41 -349 1400 -396 1590 -34 132 -63 249 -65
260 -3 11 -37 153 -77 315 l-74 295 -642 3 c-609 2 -642 1 -637 -15z"/>
</g>
</svg>
